<?xml version="1.0" encoding="utf-8"?>
<!-- Generator: Adobe Illustrator 21.1.0, SVG Export Plug-In . SVG Version: 6.00 Build 0)  -->
<svg version="1.1" id="Layer_1" xmlns="http://www.w3.org/2000/svg" xmlns:xlink="http://www.w3.org/1999/xlink" x="0px" y="0px"
	 viewBox="0 0 64 64" style="enable-background:new 0 0 64 64;" xml:space="preserve">
<style type="text/css">
	.st0{fill:#111111;}
	.st1{fill:none;}
</style>
<g>
	<path class="st0" d="M56,20v24H8V20H56 M60,16H4v32h56V16L60,16z M32,26c3.3,0,6,2.7,6,6s-2.7,6-6,6s-6-2.7-6-6S28.7,26,32,26
		 M32,22c-5.5,0-10,4.5-10,10s4.5,10,10,10s10-4.5,10-10S37.5,22,32,22L32,22z M15,29c-1.7,0-3,1.3-3,3c0,1.7,1.3,3,3,3s3-1.3,3-3
		C18,30.3,16.7,29,15,29z M49,29c-1.7,0-3,1.3-3,3c0,1.7,1.3,3,3,3s3-1.3,3-3C52,30.3,50.7,29,49,29z"/>
	<rect class="st1" width="64" height="64"/>
</g>
</svg>
