<?xml version="1.0" encoding="utf-8"?>
<!-- Generator: Adobe Illustrator 21.1.0, SVG Export Plug-In . SVG Version: 6.00 Build 0)  -->
<svg version="1.1" id="Layer_1" xmlns="http://www.w3.org/2000/svg" xmlns:xlink="http://www.w3.org/1999/xlink" x="0px" y="0px"
	 viewBox="0 0 64 64" style="enable-background:new 0 0 64 64;" xml:space="preserve">
<style type="text/css">
	.st0{fill:#111111;}
	.st1{fill:none;}
</style>
<g>
	<path class="st0" d="M20,19c0-0.6-0.4-1-1-1c-0.6,0-1,0.4-1,1v19h2V19L20,19z M52,38v4H12v-4l2,0V19c0-2.8,2.2-5,5-5
		c2.8,0,5,2.2,5,5v19L52,38L52,38z M22,47c0,1.7-1.3,3-3,3s-3-1.3-3-3s1.3-3,3-3S22,45.3,22,47z M48,47c0,1.7-1.3,3-3,3s-3-1.3-3-3
		s1.3-3,3-3S48,45.3,48,47z M52,36H26v-4h26V36z M52,30H26v-4h26V30z M42,24H26v-4h16V24z"/>
	<rect class="st1" width="64" height="64"/>
</g>
</svg>
