<?xml version="1.0" encoding="utf-8"?>
<!-- Generator: Adobe Illustrator 26.0.2, SVG Export Plug-In . SVG Version: 6.00 Build 0)  -->
<svg version="1.1" id="Layer_1" xmlns="http://www.w3.org/2000/svg" xmlns:xlink="http://www.w3.org/1999/xlink" x="0px" y="0px"
	 viewBox="0 0 64 64" style="enable-background:new 0 0 64 64;" xml:space="preserve">
<style type="text/css">
	.st0{fill:none;}
	.st1{fill:#111111;}
</style>
<g>
	<rect y="0" class="st0" width="64" height="64"/>
	<path class="st1" d="M55,40.3V24h-8v-8H4v24h8v8h20.3c0.9,3.4,4,6,7.7,6c2.9,0,5.4-1.5,6.8-3.8C48,52.5,50.3,54,53,54
		c3.9,0,7-3.1,7-7C60,43.8,57.9,41.2,55,40.3z M8,36V20h35v4H12v12H8z M16,28h35v12.3c-1.5,0.4-2.7,1.4-3.6,2.6
		C46.1,40,43.3,38,40,38c-3.7,0-6.8,2.6-7.7,6H16V28z M40,50c-2.2,0-4-1.8-4-4s1.8-4,4-4s4,1.8,4,4S42.2,50,40,50z M53,50
		c-1.7,0-3-1.3-3-3s1.3-3,3-3s3,1.3,3,3S54.7,50,53,50z"/>
</g>
</svg>
