<?xml version="1.0" encoding="utf-8"?>
<!-- Generator: Adobe Illustrator 21.1.0, SVG Export Plug-In . SVG Version: 6.00 Build 0)  -->
<svg version="1.1" id="Layer_1" xmlns="http://www.w3.org/2000/svg" xmlns:xlink="http://www.w3.org/1999/xlink" x="0px" y="0px"
	 viewBox="0 0 64 64" style="enable-background:new 0 0 64 64;" xml:space="preserve">
<style type="text/css">
	.st0{fill:#111111;}
	.st1{fill:none;}
</style>
<g>
	<path class="st0" d="M25,47c0,1.7-1.3,3-3,3s-3-1.3-3-3s1.3-3,3-3S25,45.3,25,47z M45,44c-1.7,0-3,1.3-3,3s1.3,3,3,3s3-1.3,3-3
		S46.7,44,45,44z M24.4,34l-1.5,4L48,38v4H22.9c-1.3,0-2.5-0.6-3.3-1.7c-0.7-1.1-0.9-2.5-0.5-3.7l1.8-4.9L17,18l-4,0v-4h4.3
		c1.8,0,3.3,1.1,3.8,2.8l0.5,1.5L51,20l-3,14H24.4z M22.4,22.3l2.2,7.7h20.1l1.3-6.3L22.4,22.3z"/>
	<rect class="st1" width="64" height="64"/>
</g>
</svg>
